<svg width="71" height="71" viewBox="0 0 71 71" fill="none" xmlns="http://www.w3.org/2000/svg">
<mask id="path-1-outside-1_234_334" maskUnits="userSpaceOnUse" x="-0.5" y="-0.5" width="72" height="72" fill="black">
<rect fill="white" x="-0.5" y="-0.5" width="72" height="72"/>
<path d="M70.4053 9.71861C70.2114 9.24639 69.7475 8.93439 69.2331 8.93439H62.0646V1.76677C62.0646 1.25239 61.7526 0.797032 61.2803 0.594652C60.808 0.400705 60.2598 0.510327 59.9056 0.872924L53.3697 7.40811C48.0312 4.00138 41.8916 2.18839 35.4991 2.18839C17.1309 2.18839 2.1867 17.1308 2.1867 35.4967C2.1867 37.9422 2.46501 40.3538 2.98788 42.7149C1.57949 42.9511 0.5 44.1653 0.5 45.641V67.5233C0.5 69.1592 1.83249 70.5 3.47703 70.5H33.7955C34.9846 70.5 35.9966 69.8001 36.4773 68.7882C54.3901 68.2654 68.8114 53.5338 68.8114 35.4967C68.8114 29.1049 66.9982 22.966 63.5911 17.6283L70.127 11.0931C70.4897 10.7305 70.5993 10.1908 70.4053 9.71861ZM20.3187 51.0968H16.9453C16.2454 51.0968 15.6803 51.6618 15.6803 52.3617V52.7833H3.03005V45.641C3.03005 45.3965 3.23246 45.1941 3.47703 45.1941H11.8937H25.3704H33.7871C34.0316 45.1941 34.234 45.3965 34.234 45.641V52.7833H21.5838V52.3617C21.5838 51.6618 21.0187 51.0968 20.3187 51.0968ZM42.6675 35.4967C42.6675 39.4516 39.4544 42.6643 35.4991 42.6643C31.5437 42.6643 28.3306 39.4516 28.3306 35.4967C28.3306 31.5419 31.5437 28.3291 35.4991 28.3291C37.0171 28.3291 38.4255 28.8098 39.5893 29.6193L34.6051 34.6029C34.1075 35.1004 34.1075 35.9015 34.6051 36.3906C34.8497 36.6351 35.1786 36.7616 35.4991 36.7616C35.8195 36.7616 36.1484 36.6351 36.393 36.3906L41.3772 31.407C42.1868 32.5707 42.6675 33.9789 42.6675 35.4967ZM28.9884 42.6643H26.6354V39.4178C27.1921 40.6574 27.9932 41.7621 28.9884 42.6643ZM41.3941 27.8147C39.758 26.5583 37.7171 25.7994 35.4991 25.7994C30.1522 25.7994 25.8005 30.1505 25.8005 35.4967C25.8005 36.0027 25.8511 36.4918 25.927 36.9724C25.3873 36.34 24.5861 35.9268 23.6921 35.9268H16.5152C16.5237 35.8087 16.5237 35.6654 16.5237 35.4967C16.5237 25.032 25.0331 16.5236 35.4991 16.5236C40.2724 16.5236 44.641 18.3029 47.9806 21.229L41.3941 27.8147ZM23.6921 38.4565C23.9198 38.4565 24.1054 38.642 24.1054 38.8697V42.6643H13.1587V38.8697C13.1587 38.642 13.3442 38.4565 13.5719 38.4565H23.6921ZM36.7641 45.641C36.7641 45.4639 36.7388 45.2869 36.7135 45.1098C41.4868 44.5111 45.1976 40.4297 45.1976 35.4967C45.1976 33.279 44.4386 31.2383 43.182 29.6024L49.7685 23.0166C52.695 26.3559 54.4744 30.7239 54.4744 35.4967C54.4744 45.5314 46.6397 53.7699 36.7641 54.4192V45.641ZM35.4991 4.71814C41.217 4.71814 46.7156 6.28658 51.5311 9.24639L49.7854 10.9919C49.5493 11.228 49.4143 11.5485 49.4143 11.8858V19.1208C45.6614 15.9249 40.8037 13.9939 35.4991 13.9939C23.6415 13.9939 13.9936 23.6406 13.9936 35.4967C13.9936 35.7075 13.9852 35.834 13.9767 35.9268H13.5719C11.9527 35.9268 10.6286 37.2507 10.6286 38.8697V42.6643H5.56854C5.01193 40.3285 4.71675 37.9253 4.71675 35.4967C4.71675 18.5221 18.5224 4.71814 35.4991 4.71814ZM33.7871 67.9618H3.47703C3.23246 67.9618 3.03005 67.7594 3.03005 67.5149V55.3131H15.6803V55.7347C15.6803 56.4346 16.2454 56.9996 16.9453 56.9996H20.3187C21.0187 56.9996 21.5838 56.4346 21.5838 55.7347V55.3131H34.234V67.5149C34.234 67.7594 34.0316 67.9618 33.7871 67.9618ZM66.2814 35.4967C66.2814 52.0413 53.1504 65.5754 36.7641 66.2416V56.9574C48.0312 56.2997 57.0045 46.9228 57.0045 35.4967C57.0045 30.1927 55.0732 25.3356 51.8769 21.5831H59.1129C59.4502 21.5831 59.7707 21.4482 60.0068 21.2121L61.7526 19.4666C64.7127 24.2815 66.2814 29.7795 66.2814 35.4967ZM61.0694 16.5742L58.59 19.0534H51.9444V12.4086L54.4238 9.92942C54.4238 9.92942 54.4238 9.92942 54.4323 9.92099L59.5345 4.81933V10.1993C59.5345 10.8992 60.0996 11.4641 60.7996 11.4641H66.1801L61.0694 16.5742Z"/>
</mask>
<path d="M70.4053 9.71861C70.2114 9.24639 69.7475 8.93439 69.2331 8.93439H62.0646V1.76677C62.0646 1.25239 61.7526 0.797032 61.2803 0.594652C60.808 0.400705 60.2598 0.510327 59.9056 0.872924L53.3697 7.40811C48.0312 4.00138 41.8916 2.18839 35.4991 2.18839C17.1309 2.18839 2.1867 17.1308 2.1867 35.4967C2.1867 37.9422 2.46501 40.3538 2.98788 42.7149C1.57949 42.9511 0.5 44.1653 0.5 45.641V67.5233C0.5 69.1592 1.83249 70.5 3.47703 70.5H33.7955C34.9846 70.5 35.9966 69.8001 36.4773 68.7882C54.3901 68.2654 68.8114 53.5338 68.8114 35.4967C68.8114 29.1049 66.9982 22.966 63.5911 17.6283L70.127 11.0931C70.4897 10.7305 70.5993 10.1908 70.4053 9.71861ZM20.3187 51.0968H16.9453C16.2454 51.0968 15.6803 51.6618 15.6803 52.3617V52.7833H3.03005V45.641C3.03005 45.3965 3.23246 45.1941 3.47703 45.1941H11.8937H25.3704H33.7871C34.0316 45.1941 34.234 45.3965 34.234 45.641V52.7833H21.5838V52.3617C21.5838 51.6618 21.0187 51.0968 20.3187 51.0968ZM42.6675 35.4967C42.6675 39.4516 39.4544 42.6643 35.4991 42.6643C31.5437 42.6643 28.3306 39.4516 28.3306 35.4967C28.3306 31.5419 31.5437 28.3291 35.4991 28.3291C37.0171 28.3291 38.4255 28.8098 39.5893 29.6193L34.6051 34.6029C34.1075 35.1004 34.1075 35.9015 34.6051 36.3906C34.8497 36.6351 35.1786 36.7616 35.4991 36.7616C35.8195 36.7616 36.1484 36.6351 36.393 36.3906L41.3772 31.407C42.1868 32.5707 42.6675 33.9789 42.6675 35.4967ZM28.9884 42.6643H26.6354V39.4178C27.1921 40.6574 27.9932 41.7621 28.9884 42.6643ZM41.3941 27.8147C39.758 26.5583 37.7171 25.7994 35.4991 25.7994C30.1522 25.7994 25.8005 30.1505 25.8005 35.4967C25.8005 36.0027 25.8511 36.4918 25.927 36.9724C25.3873 36.34 24.5861 35.9268 23.6921 35.9268H16.5152C16.5237 35.8087 16.5237 35.6654 16.5237 35.4967C16.5237 25.032 25.0331 16.5236 35.4991 16.5236C40.2724 16.5236 44.641 18.3029 47.9806 21.229L41.3941 27.8147ZM23.6921 38.4565C23.9198 38.4565 24.1054 38.642 24.1054 38.8697V42.6643H13.1587V38.8697C13.1587 38.642 13.3442 38.4565 13.5719 38.4565H23.6921ZM36.7641 45.641C36.7641 45.4639 36.7388 45.2869 36.7135 45.1098C41.4868 44.5111 45.1976 40.4297 45.1976 35.4967C45.1976 33.279 44.4386 31.2383 43.182 29.6024L49.7685 23.0166C52.695 26.3559 54.4744 30.7239 54.4744 35.4967C54.4744 45.5314 46.6397 53.7699 36.7641 54.4192V45.641ZM35.4991 4.71814C41.217 4.71814 46.7156 6.28658 51.5311 9.24639L49.7854 10.9919C49.5493 11.228 49.4143 11.5485 49.4143 11.8858V19.1208C45.6614 15.9249 40.8037 13.9939 35.4991 13.9939C23.6415 13.9939 13.9936 23.6406 13.9936 35.4967C13.9936 35.7075 13.9852 35.834 13.9767 35.9268H13.5719C11.9527 35.9268 10.6286 37.2507 10.6286 38.8697V42.6643H5.56854C5.01193 40.3285 4.71675 37.9253 4.71675 35.4967C4.71675 18.5221 18.5224 4.71814 35.4991 4.71814ZM33.7871 67.9618H3.47703C3.23246 67.9618 3.03005 67.7594 3.03005 67.5149V55.3131H15.6803V55.7347C15.6803 56.4346 16.2454 56.9996 16.9453 56.9996H20.3187C21.0187 56.9996 21.5838 56.4346 21.5838 55.7347V55.3131H34.234V67.5149C34.234 67.7594 34.0316 67.9618 33.7871 67.9618ZM66.2814 35.4967C66.2814 52.0413 53.1504 65.5754 36.7641 66.2416V56.9574C48.0312 56.2997 57.0045 46.9228 57.0045 35.4967C57.0045 30.1927 55.0732 25.3356 51.8769 21.5831H59.1129C59.4502 21.5831 59.7707 21.4482 60.0068 21.2121L61.7526 19.4666C64.7127 24.2815 66.2814 29.7795 66.2814 35.4967ZM61.0694 16.5742L58.59 19.0534H51.9444V12.4086L54.4238 9.92942C54.4238 9.92942 54.4238 9.92942 54.4323 9.92099L59.5345 4.81933V10.1993C59.5345 10.8992 60.0996 11.4641 60.7996 11.4641H66.1801L61.0694 16.5742Z" fill="#F0F0F0"/>
<path d="M70.4053 9.71861C70.2114 9.24639 69.7475 8.93439 69.2331 8.93439H62.0646V1.76677C62.0646 1.25239 61.7526 0.797032 61.2803 0.594652C60.808 0.400705 60.2598 0.510327 59.9056 0.872924L53.3697 7.40811C48.0312 4.00138 41.8916 2.18839 35.4991 2.18839C17.1309 2.18839 2.1867 17.1308 2.1867 35.4967C2.1867 37.9422 2.46501 40.3538 2.98788 42.7149C1.57949 42.9511 0.5 44.1653 0.5 45.641V67.5233C0.5 69.1592 1.83249 70.5 3.47703 70.5H33.7955C34.9846 70.5 35.9966 69.8001 36.4773 68.7882C54.3901 68.2654 68.8114 53.5338 68.8114 35.4967C68.8114 29.1049 66.9982 22.966 63.5911 17.6283L70.127 11.0931C70.4897 10.7305 70.5993 10.1908 70.4053 9.71861ZM20.3187 51.0968H16.9453C16.2454 51.0968 15.6803 51.6618 15.6803 52.3617V52.7833H3.03005V45.641C3.03005 45.3965 3.23246 45.1941 3.47703 45.1941H11.8937H25.3704H33.7871C34.0316 45.1941 34.234 45.3965 34.234 45.641V52.7833H21.5838V52.3617C21.5838 51.6618 21.0187 51.0968 20.3187 51.0968ZM42.6675 35.4967C42.6675 39.4516 39.4544 42.6643 35.4991 42.6643C31.5437 42.6643 28.3306 39.4516 28.3306 35.4967C28.3306 31.5419 31.5437 28.3291 35.4991 28.3291C37.0171 28.3291 38.4255 28.8098 39.5893 29.6193L34.6051 34.6029C34.1075 35.1004 34.1075 35.9015 34.6051 36.3906C34.8497 36.6351 35.1786 36.7616 35.4991 36.7616C35.8195 36.7616 36.1484 36.6351 36.393 36.3906L41.3772 31.407C42.1868 32.5707 42.6675 33.9789 42.6675 35.4967ZM28.9884 42.6643H26.6354V39.4178C27.1921 40.6574 27.9932 41.7621 28.9884 42.6643ZM41.3941 27.8147C39.758 26.5583 37.7171 25.7994 35.4991 25.7994C30.1522 25.7994 25.8005 30.1505 25.8005 35.4967C25.8005 36.0027 25.8511 36.4918 25.927 36.9724C25.3873 36.34 24.5861 35.9268 23.6921 35.9268H16.5152C16.5237 35.8087 16.5237 35.6654 16.5237 35.4967C16.5237 25.032 25.0331 16.5236 35.4991 16.5236C40.2724 16.5236 44.641 18.3029 47.9806 21.229L41.3941 27.8147ZM23.6921 38.4565C23.9198 38.4565 24.1054 38.642 24.1054 38.8697V42.6643H13.1587V38.8697C13.1587 38.642 13.3442 38.4565 13.5719 38.4565H23.6921ZM36.7641 45.641C36.7641 45.4639 36.7388 45.2869 36.7135 45.1098C41.4868 44.5111 45.1976 40.4297 45.1976 35.4967C45.1976 33.279 44.4386 31.2383 43.182 29.6024L49.7685 23.0166C52.695 26.3559 54.4744 30.7239 54.4744 35.4967C54.4744 45.5314 46.6397 53.7699 36.7641 54.4192V45.641ZM35.4991 4.71814C41.217 4.71814 46.7156 6.28658 51.5311 9.24639L49.7854 10.9919C49.5493 11.228 49.4143 11.5485 49.4143 11.8858V19.1208C45.6614 15.9249 40.8037 13.9939 35.4991 13.9939C23.6415 13.9939 13.9936 23.6406 13.9936 35.4967C13.9936 35.7075 13.9852 35.834 13.9767 35.9268H13.5719C11.9527 35.9268 10.6286 37.2507 10.6286 38.8697V42.6643H5.56854C5.01193 40.3285 4.71675 37.9253 4.71675 35.4967C4.71675 18.5221 18.5224 4.71814 35.4991 4.71814ZM33.7871 67.9618H3.47703C3.23246 67.9618 3.03005 67.7594 3.03005 67.5149V55.3131H15.6803V55.7347C15.6803 56.4346 16.2454 56.9996 16.9453 56.9996H20.3187C21.0187 56.9996 21.5838 56.4346 21.5838 55.7347V55.3131H34.234V67.5149C34.234 67.7594 34.0316 67.9618 33.7871 67.9618ZM66.2814 35.4967C66.2814 52.0413 53.1504 65.5754 36.7641 66.2416V56.9574C48.0312 56.2997 57.0045 46.9228 57.0045 35.4967C57.0045 30.1927 55.0732 25.3356 51.8769 21.5831H59.1129C59.4502 21.5831 59.7707 21.4482 60.0068 21.2121L61.7526 19.4666C64.7127 24.2815 66.2814 29.7795 66.2814 35.4967ZM61.0694 16.5742L58.59 19.0534H51.9444V12.4086L54.4238 9.92942C54.4238 9.92942 54.4238 9.92942 54.4323 9.92099L59.5345 4.81933V10.1993C59.5345 10.8992 60.0996 11.4641 60.7996 11.4641H66.1801L61.0694 16.5742Z" stroke="#F0F0F0" mask="url(#path-1-outside-1_234_334)"/>
</svg>
