<svg width="85" height="74" viewBox="0 0 85 74" fill="none" xmlns="http://www.w3.org/2000/svg">
<path d="M31.6996 12.7693V2H53.2996V12.7693M69.4997 37.6347V50.4622H15.4997V37.6347M47.9 66.6154C47.9 69.5892 45.4823 72 42.5 72C39.5177 72 37.1 69.5892 37.1 66.6154M47.9 66.6154C47.9 63.6415 45.4823 61.2307 42.5 61.2307C39.5177 61.2307 37.1 63.6415 37.1 66.6154M47.9 66.6154H72.2M37.1 66.6154H12.8M12.8 66.6154C12.8 69.5892 10.3823 72 7.4 72C4.41766 72 2 69.5892 2 66.6154C2 63.6415 4.41766 61.2307 7.4 61.2307C10.3823 61.2307 12.8 63.6415 12.8 66.6154ZM72.2 66.6154C72.2 69.5892 74.6177 72 77.6 72C80.5823 72 83 69.5892 83 66.6154C83 63.6415 80.5823 61.2307 77.6 61.2307C74.6177 61.2307 72.2 63.6415 72.2 66.6154ZM72.1996 31.6163C72.1996 33.7585 71.3462 35.8129 69.8271 37.3276C68.3081 38.8423 66.2478 39.6933 64.0996 39.6933H20.8996C18.7513 39.6933 16.6911 38.8423 15.172 37.3276C13.653 35.8129 12.7996 33.7585 12.7996 31.6163V12.7701H72.1996V31.6163ZM45.2002 28.9223C45.2002 30.4092 43.9914 31.6146 42.5002 31.6146C41.009 31.6146 39.8002 30.4092 39.8002 28.9223C39.8002 27.4354 41.009 26.23 42.5002 26.23C43.9914 26.23 45.2002 27.4354 45.2002 28.9223Z" stroke="#011627" stroke-width="4" stroke-linecap="round" stroke-linejoin="round"/>
</svg>
