<svg width="51" height="64" viewBox="0 0 51 64" fill="none" xmlns="http://www.w3.org/2000/svg">
<path d="M13.6192 34.5263C-1.52628 39.8718 -0.0714891 53.2067 0.127105 62.4726C0.142565 63.1939 0.886265 63.6752 1.54703 63.3855L21.8947 54.4649C25.2632 53.0526 24.3981 49.3474 20.356 48C15.3034 46.3158 13.0438 42.5917 15.3034 39.5789C17.8297 36.2105 25.5614 34.9421 30.4613 32.8421C36.356 30.3158 38.8824 28.6316 39.7245 25.2631C40.3959 22.5775 38.8824 19.2 35.5139 18.5263L36.356 20.2105C38.8824 26.9474 27.935 29.4737 13.6192 34.5263Z" fill="url(#paint0_linear_64_195)"/>
<path d="M41.0091 45.9011C59.2289 28.6687 46.673 20.4756 38.0403 18.5263C44.7771 23.5789 44.5104 27.303 42.2508 30.3158C39.7245 33.6842 33.8297 35.3684 28.7771 37.0526C24.7048 38.41 25.9597 41.6191 27.7895 42.1053L40.0058 46.131C40.3517 46.245 40.7444 46.1514 41.0091 45.9011Z" fill="url(#paint1_linear_64_195)"/>
<path d="M32.1457 0C32.1457 8.42105 35.3686 11.7895 43.9351 11.7895C35.3686 11.7895 32.1457 15.1579 32.1457 23.5789C32.1457 15.1579 28.6317 11.7895 20.3562 11.7895C28.6317 11.7895 32.1457 8.42105 32.1457 0Z" fill="url(#paint2_linear_64_195)"/>
<defs>
<linearGradient id="paint0_linear_64_195" x1="19.3684" y1="62.3158" x2="37.8947" y2="18.5263" gradientUnits="userSpaceOnUse">
<stop stop-color="#3C71FA"/>
<stop offset="1" stop-color="#55C7F1"/>
</linearGradient>
<linearGradient id="paint1_linear_64_195" x1="19.3684" y1="62.3158" x2="37.8947" y2="18.5263" gradientUnits="userSpaceOnUse">
<stop stop-color="#3C71FA"/>
<stop offset="1" stop-color="#55C7F1"/>
</linearGradient>
<linearGradient id="paint2_linear_64_195" x1="28.6317" y1="16" x2="34.5264" y2="9.26316" gradientUnits="userSpaceOnUse">
<stop stop-color="#3C71FA"/>
<stop offset="1" stop-color="#55C7F1"/>
</linearGradient>
</defs>
</svg>
