<svg width="139" height="48" viewBox="0 0 139 48" fill="none" xmlns="http://www.w3.org/2000/svg">
<path d="M24.4814 0C24.4814 6.40497 26.9359 8.96695 33.46 8.96695C26.9359 8.96695 24.4814 11.5289 24.4814 17.9339C24.4814 11.5289 21.8053 8.96695 15.5028 8.96695C21.8053 8.96695 24.4814 6.40497 24.4814 0Z" fill="url(#paint0_linear_27_20)"/>
<path d="M10.3721 26.2604C-0.734323 30.1752 -0.119267 39.724 0.0767042 46.7191C0.102586 47.6429 1.06095 48.2617 1.90849 47.8906L16.6746 41.4255C19.2399 40.3513 18.5811 37.5331 15.5027 36.5083C11.6548 35.2273 9.93389 32.3949 11.6548 30.1033C13.5787 27.5414 19.467 26.5766 23.1987 24.9794C27.688 23.0579 29.612 21.7769 30.2533 19.2149C30.7646 17.1722 29.612 14.6033 27.0467 14.0909L27.688 15.3719C29.612 20.4959 21.2747 22.4174 10.3721 26.2604Z" fill="url(#paint1_linear_27_20)"/>
<path d="M31.4571 34.6976C45.0031 21.7372 35.5093 15.5655 28.9707 14.0909C34.1013 17.9339 33.8982 20.7664 32.1773 23.0579C30.2533 25.6199 25.764 26.9009 21.916 28.1819C18.8147 29.2143 19.7704 31.655 21.1639 32.0248L30.1754 34.9906C30.6191 35.1366 31.1197 35.0204 31.4571 34.6976Z" fill="url(#paint2_linear_27_20)"/>
<path d="M46.0179 32.0248V19.1124H51.2434C51.3691 19.1124 51.5247 19.1184 51.7103 19.1304C51.8959 19.1363 52.0724 19.1543 52.24 19.1842C52.9583 19.2977 53.5569 19.5428 54.0358 19.9194C54.5206 20.2961 54.8827 20.7713 55.1222 21.3452C55.3616 21.9191 55.4813 22.5527 55.4813 23.2462C55.4813 23.9456 55.3616 24.5823 55.1222 25.1561C54.8827 25.73 54.5206 26.2053 54.0358 26.5819C53.5569 26.9585 52.9583 27.2036 52.24 27.3172C52.0724 27.3411 51.8929 27.359 51.7013 27.371C51.5158 27.3829 51.3631 27.3889 51.2434 27.3889H47.8944V32.0248H46.0179ZM47.8944 25.6135H51.1716C51.2913 25.6135 51.423 25.6075 51.5666 25.5955C51.7163 25.5836 51.857 25.5626 51.9886 25.5328C52.3717 25.4431 52.68 25.2787 52.9134 25.0396C53.1469 24.7945 53.3145 24.5135 53.4162 24.1967C53.518 23.8798 53.5689 23.563 53.5689 23.2462C53.5689 22.9294 53.518 22.6155 53.4162 22.3047C53.3145 21.9878 53.1469 21.7098 52.9134 21.4707C52.68 21.2256 52.3717 21.0582 51.9886 20.9686C51.857 20.9327 51.7163 20.9088 51.5666 20.8968C51.423 20.8849 51.2913 20.8789 51.1716 20.8789H47.8944V25.6135Z" fill="#2C4878"/>
<path d="M59.7166 32.2938C58.9983 32.2938 58.3967 32.1623 57.9119 31.8993C57.427 31.6303 57.0589 31.2776 56.8075 30.8412C56.5621 30.3988 56.4394 29.9146 56.4394 29.3885C56.4394 28.8984 56.5262 28.4679 56.6998 28.0973C56.8733 27.7267 57.1307 27.4128 57.4719 27.1558C57.8131 26.8927 58.2321 26.6805 58.7289 26.5191C59.1599 26.3936 59.6477 26.283 60.1924 26.1873C60.7371 26.0917 61.3088 26.002 61.9074 25.9183C62.5119 25.8346 63.1105 25.751 63.7031 25.6673L63.0207 26.0439C63.0327 25.2847 62.8711 24.7227 62.5359 24.3581C62.2066 23.9875 61.638 23.8021 60.8299 23.8021C60.3211 23.8021 59.8542 23.9217 59.4292 24.1608C59.0043 24.394 58.708 24.7825 58.5404 25.3265L56.7895 24.7885C57.029 23.9576 57.4839 23.297 58.1543 22.8068C58.8307 22.3166 59.7285 22.0715 60.8479 22.0715C61.7158 22.0715 62.47 22.221 63.1105 22.5199C63.7569 22.8128 64.2298 23.2791 64.5291 23.9187C64.6847 24.2355 64.7805 24.5703 64.8164 24.923C64.8523 25.2757 64.8703 25.6553 64.8703 26.0618V32.0248H63.2092V29.81L63.5325 30.0969C63.1314 30.8382 62.6197 31.3912 61.9971 31.7558C61.3806 32.1145 60.6204 32.2938 59.7166 32.2938ZM60.0488 30.7605C60.5815 30.7605 61.0394 30.6678 61.4225 30.4825C61.8056 30.2912 62.1139 30.0491 62.3473 29.7562C62.5807 29.4633 62.7334 29.1584 62.8052 28.8416C62.907 28.5546 62.9638 28.2318 62.9758 27.8731C62.9938 27.5145 63.0027 27.2275 63.0027 27.0123L63.6133 27.2365C63.0207 27.3261 62.482 27.4069 61.9971 27.4786C61.5123 27.5503 61.0723 27.6221 60.6773 27.6938C60.2882 27.7595 59.941 27.8403 59.6358 27.9359C59.3784 28.0256 59.1479 28.1332 58.9444 28.2587C58.7469 28.3842 58.5883 28.5367 58.4685 28.716C58.3548 28.8954 58.2979 29.1136 58.2979 29.3706C58.2979 29.6217 58.3608 29.8548 58.4865 30.07C58.6122 30.2793 58.8037 30.4466 59.0611 30.5722C59.3185 30.6977 59.6477 30.7605 60.0488 30.7605Z" fill="#2C4878"/>
<path d="M72.7506 32.0248C72.14 32.1444 71.5415 32.1952 70.9549 32.1773C70.3682 32.1593 69.8445 32.0458 69.3836 31.8365C68.9227 31.6273 68.5755 31.2985 68.3421 30.8502C68.1326 30.4496 68.0188 30.0431 68.0009 29.6307C67.9889 29.2122 67.9829 28.7399 67.9829 28.2139V19.6504H69.8684V28.1242C69.8684 28.5128 69.8714 28.8505 69.8774 29.1375C69.8894 29.4244 69.9522 29.6665 70.066 29.8638C70.2815 30.2344 70.6226 30.4466 71.0895 30.5004C71.5624 30.5483 72.1161 30.5273 72.7506 30.4377V32.0248ZM66.1244 23.847V22.3405H72.7506V23.847H66.1244Z" fill="#2C4878"/>
<path d="M81.6008 32.0248V27.2634C81.6008 26.8868 81.5679 26.5012 81.5021 26.1066C81.4422 25.7061 81.3225 25.3355 81.1429 24.9947C80.9693 24.654 80.7209 24.379 80.3977 24.1698C80.0804 23.9606 79.6644 23.8559 79.1497 23.8559C78.8145 23.8559 78.4972 23.9127 78.1979 24.0263C77.8986 24.1339 77.6353 24.3103 77.4078 24.5554C77.1863 24.8005 77.0098 25.1233 76.8781 25.5238C76.7524 25.9243 76.6895 26.4115 76.6895 26.9854L75.5223 26.546C75.5223 25.6673 75.6869 24.8931 76.0161 24.2236C76.3453 23.5481 76.8182 23.022 77.4347 22.6454C78.0513 22.2688 78.7965 22.0805 79.6704 22.0805C80.3408 22.0805 80.9035 22.1881 81.3584 22.4033C81.8133 22.6185 82.1814 22.9024 82.4628 23.2552C82.7501 23.6019 82.9686 23.9815 83.1182 24.394C83.2679 24.8064 83.3696 25.2099 83.4235 25.6045C83.4774 25.999 83.5043 26.3458 83.5043 26.6447V32.0248H81.6008ZM74.7861 32.0248V19.1124H76.4651V26.0797H76.6895V32.0248H74.7861Z" fill="#2C4878"/>
<path d="M87.908 32.0248L84.9451 22.3316L86.8036 22.3405L88.8328 28.985L90.8799 22.3405H92.4961L94.5432 28.985L96.5724 22.3405H98.422L95.459 32.0248H93.9506L91.688 25.0127L89.4164 32.0248H87.908Z" fill="#2C4878"/>
<path d="M100.209 20.7534V18.9331H102.086V20.7534H100.209ZM100.209 32.0248V22.3405H102.086V32.0248H100.209Z" fill="#2C4878"/>
<path d="M108.49 32.2849C107.311 32.2849 106.35 32.0248 105.608 31.5047C104.866 30.9847 104.411 30.2524 104.243 29.3078L106.165 29.0119C106.285 29.5141 106.56 29.9116 106.991 30.2045C107.428 30.4915 107.97 30.635 108.616 30.635C109.203 30.635 109.661 30.5154 109.99 30.2763C110.325 30.0372 110.493 29.7084 110.493 29.2899C110.493 29.0448 110.433 28.8475 110.313 28.6981C110.199 28.5427 109.957 28.3962 109.586 28.2587C109.215 28.1212 108.649 27.9508 107.889 27.7476C107.057 27.5324 106.395 27.3022 105.905 27.0571C105.42 26.8061 105.073 26.5161 104.863 26.1873C104.659 25.8526 104.558 25.4491 104.558 24.9768C104.558 24.391 104.713 23.8798 105.025 23.4435C105.336 23.0071 105.773 22.6693 106.336 22.4302C106.904 22.1911 107.569 22.0715 108.329 22.0715C109.071 22.0715 109.732 22.1881 110.313 22.4212C110.894 22.6544 111.364 22.9861 111.723 23.4166C112.082 23.841 112.297 24.3402 112.369 24.914L110.448 25.2637C110.382 24.7975 110.163 24.4298 109.792 24.1608C109.421 23.8918 108.939 23.7453 108.347 23.7214C107.778 23.6975 107.317 23.7932 106.964 24.0084C106.611 24.2176 106.434 24.5075 106.434 24.8782C106.434 25.0934 106.5 25.2757 106.632 25.4252C106.769 25.5746 107.033 25.7181 107.422 25.8556C107.811 25.9931 108.386 26.1575 109.146 26.3487C109.96 26.558 110.606 26.7911 111.085 27.0482C111.564 27.2992 111.905 27.6011 112.109 27.9538C112.318 28.3006 112.423 28.722 112.423 29.2182C112.423 30.1746 112.073 30.9249 111.373 31.4689C110.678 32.0129 109.717 32.2849 108.49 32.2849Z" fill="#2C4878"/>
<path d="M118.71 32.2938C117.747 32.2938 116.9 32.0846 116.169 31.6662C115.445 31.2417 114.88 30.6529 114.473 29.8997C114.071 29.1405 113.871 28.2617 113.871 27.2634C113.871 26.2053 114.068 25.2877 114.464 24.5105C114.865 23.7334 115.421 23.1326 116.134 22.7082C116.846 22.2837 117.675 22.0715 118.621 22.0715C119.608 22.0715 120.449 22.3017 121.144 22.762C121.838 23.2163 122.356 23.8649 122.697 24.7078C123.044 25.5507 123.182 26.552 123.11 27.7117H121.233V27.0302C121.221 25.9064 121.006 25.0754 120.587 24.5374C120.174 23.9994 119.542 23.7304 118.692 23.7304C117.753 23.7304 117.046 24.0263 116.574 24.6181C116.101 25.2099 115.864 26.0648 115.864 27.1827C115.864 28.2468 116.101 29.0717 116.574 29.6576C117.046 30.2374 117.729 30.5273 118.621 30.5273C119.207 30.5273 119.713 30.3958 120.138 30.1328C120.569 29.8638 120.904 29.4812 121.144 28.985L122.984 29.5679C122.607 30.4347 122.036 31.1072 121.269 31.5854C120.503 32.0577 119.65 32.2938 118.71 32.2938ZM115.254 27.7117V26.2501H122.176V27.7117H115.254Z" fill="#2C4878"/>
<path d="M124.227 32.0248L128.429 19.1124H131.131L135.333 32.0248H133.385L129.515 20.2423H130L126.175 32.0248H124.227ZM126.408 29.1106V27.353H133.16V29.1106H126.408Z" fill="#5FD1DA"/>
<path d="M137.123 32.0248V19.1124H139V32.0248H137.123Z" fill="#5FD1DA"/>
<defs>
<linearGradient id="paint0_linear_27_20" x1="120.892" y1="1.03053e-06" x2="99.3433" y2="71.6156" gradientUnits="userSpaceOnUse">
<stop stop-color="#5FD1DA"/>
<stop offset="0.451923" stop-color="#5BC7D3"/>
<stop offset="1" stop-color="#2C4878"/>
</linearGradient>
<linearGradient id="paint1_linear_27_20" x1="111.583" y1="1.94289e-06" x2="95.652" y2="64.2401" gradientUnits="userSpaceOnUse">
<stop stop-color="#5FD1DA"/>
<stop offset="1" stop-color="#2C4878"/>
</linearGradient>
<linearGradient id="paint2_linear_27_20" x1="111.583" y1="1.94289e-06" x2="95.652" y2="64.2401" gradientUnits="userSpaceOnUse">
<stop stop-color="#5FD1DA"/>
<stop offset="1" stop-color="#2C4878"/>
</linearGradient>
</defs>
</svg>
