<svg width="110" height="38" viewBox="0 0 110 38" fill="none" xmlns="http://www.w3.org/2000/svg">
<path d="M19.0864 0C19.0864 5 21 7 26.0864 7C21 7 19.0864 9 19.0864 14C19.0864 9 17 7 12.0864 7C17 7 19.0864 5 19.0864 0Z" fill="url(#paint0_linear_58_1375)"/>
<path d="M8.0864 20.5C-0.5725 23.5561 -0.0929841 31.0103 0.0598009 36.471C0.0799795 37.1922 0.827149 37.6752 1.48792 37.3856L13 32.3386C15 31.5 14.4864 29.3 12.0864 28.5C9.0864 27.5 7.74476 25.2889 9.0864 23.5C10.5864 21.5 15.1771 20.7469 18.0864 19.5C21.5864 18 23.0864 17 23.5864 15C23.985 13.4054 23.0864 11.4 21.0864 11L21.5864 12C23.0864 16 16.5864 17.5 8.0864 20.5Z" fill="url(#paint1_linear_58_1375)"/>
<path d="M24.5249 27.0865C35.0857 16.969 27.6841 12.1511 22.5864 11C26.5864 14 26.428 16.2111 25.0864 18C23.5864 20 20.0864 21 17.0864 22C14.6685 22.806 15.4136 24.7113 16.5 25L23.5256 27.3152C23.8716 27.4292 24.2618 27.3385 24.5249 27.0865Z" fill="url(#paint2_linear_58_1375)"/>
<path d="M35.8769 25V14.92H39.9509C40.0489 14.92 40.1702 14.9247 40.3149 14.934C40.4596 14.9387 40.5972 14.9527 40.7279 14.976C41.2879 15.0647 41.7546 15.256 42.1279 15.55C42.5059 15.844 42.7882 16.215 42.9749 16.663C43.1616 17.111 43.2549 17.6057 43.2549 18.147C43.2549 18.693 43.1616 19.19 42.9749 19.638C42.7882 20.086 42.5059 20.457 42.1279 20.751C41.7546 21.045 41.2879 21.2363 40.7279 21.325C40.5972 21.3437 40.4572 21.3577 40.3079 21.367C40.1632 21.3763 40.0442 21.381 39.9509 21.381H37.3399V25H35.8769ZM37.3399 19.995H39.8949C39.9882 19.995 40.0909 19.9903 40.2029 19.981C40.3196 19.9717 40.4292 19.9553 40.5319 19.932C40.8306 19.862 41.0709 19.7337 41.2529 19.547C41.4349 19.3557 41.5656 19.1363 41.6449 18.889C41.7242 18.6417 41.7639 18.3943 41.7639 18.147C41.7639 17.8997 41.7242 17.6547 41.6449 17.412C41.5656 17.1647 41.4349 16.9477 41.2529 16.761C41.0709 16.5697 40.8306 16.439 40.5319 16.369C40.4292 16.341 40.3196 16.3223 40.2029 16.313C40.0909 16.3037 39.9882 16.299 39.8949 16.299H37.3399V19.995ZM46.5568 25.21C45.9968 25.21 45.5278 25.1073 45.1498 24.902C44.7718 24.692 44.4848 24.4167 44.2888 24.076C44.0975 23.7307 44.0018 23.3527 44.0018 22.942C44.0018 22.5593 44.0695 22.2233 44.2048 21.934C44.3402 21.6447 44.5408 21.3997 44.8068 21.199C45.0728 20.9937 45.3995 20.828 45.7868 20.702C46.1228 20.604 46.5032 20.5177 46.9278 20.443C47.3525 20.3683 47.7982 20.2983 48.2648 20.233C48.7362 20.1677 49.2028 20.1023 49.6648 20.037L49.1328 20.331C49.1422 19.7383 49.0162 19.2997 48.7548 19.015C48.4982 18.7257 48.0548 18.581 47.4248 18.581C47.0282 18.581 46.6642 18.6743 46.3328 18.861C46.0015 19.043 45.7705 19.3463 45.6398 19.771L44.2748 19.351C44.4615 18.7023 44.8162 18.1867 45.3388 17.804C45.8662 17.4213 46.5662 17.23 47.4388 17.23C48.1155 17.23 48.7035 17.3467 49.2028 17.58C49.7068 17.8087 50.0755 18.1727 50.3088 18.672C50.4302 18.9193 50.5048 19.1807 50.5328 19.456C50.5608 19.7313 50.5748 20.0277 50.5748 20.345V25H49.2798V23.271L49.5318 23.495C49.2192 24.0737 48.8202 24.5053 48.3348 24.79C47.8542 25.07 47.2615 25.21 46.5568 25.21ZM46.8158 24.013C47.2312 24.013 47.5882 23.9407 47.8868 23.796C48.1855 23.6467 48.4258 23.4577 48.6078 23.229C48.7898 23.0003 48.9088 22.7623 48.9648 22.515C49.0442 22.291 49.0885 22.039 49.0978 21.759C49.1118 21.479 49.1188 21.255 49.1188 21.087L49.5948 21.262C49.1328 21.332 48.7128 21.395 48.3348 21.451C47.9568 21.507 47.6138 21.563 47.3058 21.619C47.0025 21.6703 46.7318 21.7333 46.4938 21.808C46.2932 21.878 46.1135 21.962 45.9548 22.06C45.8008 22.158 45.6772 22.277 45.5838 22.417C45.4952 22.557 45.4508 22.7273 45.4508 22.928C45.4508 23.124 45.4998 23.306 45.5978 23.474C45.6958 23.6373 45.8452 23.768 46.0458 23.866C46.2465 23.964 46.5032 24.013 46.8158 24.013ZM56.7185 25C56.2425 25.0933 55.7759 25.133 55.3185 25.119C54.8612 25.105 54.4529 25.0163 54.0935 24.853C53.7342 24.6897 53.4635 24.433 53.2815 24.083C53.1182 23.7703 53.0295 23.453 53.0155 23.131C53.0062 22.8043 53.0015 22.4357 53.0015 22.025V15.34H54.4715V21.955C54.4715 22.2583 54.4739 22.522 54.4785 22.746C54.4879 22.97 54.5369 23.159 54.6255 23.313C54.7935 23.6023 55.0595 23.768 55.4235 23.81C55.7922 23.8473 56.2239 23.831 56.7185 23.761V25ZM51.5525 18.616V17.44H56.7185V18.616H51.5525ZM63.6185 25V21.283C63.6185 20.989 63.5928 20.688 63.5415 20.38C63.4948 20.0673 63.4015 19.778 63.2615 19.512C63.1261 19.246 62.9325 19.0313 62.6805 18.868C62.4331 18.7047 62.1088 18.623 61.7075 18.623C61.4461 18.623 61.1988 18.6673 60.9655 18.756C60.7321 18.84 60.5268 18.9777 60.3495 19.169C60.1768 19.3603 60.0391 19.6123 59.9365 19.925C59.8385 20.2377 59.7895 20.618 59.7895 21.066L58.8795 20.723C58.8795 20.037 59.0078 19.4327 59.2645 18.91C59.5211 18.3827 59.8898 17.972 60.3705 17.678C60.8511 17.384 61.4321 17.237 62.1135 17.237C62.6361 17.237 63.0748 17.321 63.4295 17.489C63.7841 17.657 64.0711 17.8787 64.2905 18.154C64.5145 18.4247 64.6848 18.721 64.8015 19.043C64.9181 19.365 64.9975 19.68 65.0395 19.988C65.0815 20.296 65.1025 20.5667 65.1025 20.8V25H63.6185ZM58.3055 25V14.92H59.6145V20.359H59.7895V25H58.3055ZM68.5357 25L66.2257 17.433L67.6747 17.44L69.2567 22.627L70.8527 17.44H72.1127L73.7087 22.627L75.2907 17.44H76.7327L74.4227 25H73.2467L71.4827 19.526L69.7117 25H68.5357ZM78.1263 16.201V14.78H79.5893V16.201H78.1263ZM78.1263 25V17.44H79.5893V25H78.1263ZM84.5824 25.203C83.663 25.203 82.914 25 82.3354 24.594C81.7567 24.188 81.402 23.6163 81.2714 22.879L82.7694 22.648C82.8627 23.04 83.0774 23.3503 83.4134 23.579C83.754 23.803 84.1764 23.915 84.6804 23.915C85.1377 23.915 85.4947 23.8217 85.7514 23.635C86.0127 23.4483 86.1434 23.1917 86.1434 22.865C86.1434 22.6737 86.0967 22.5197 86.0034 22.403C85.9147 22.2817 85.7257 22.1673 85.4364 22.06C85.147 21.9527 84.706 21.8197 84.1134 21.661C83.4647 21.493 82.949 21.3133 82.5664 21.122C82.1884 20.926 81.9177 20.6997 81.7544 20.443C81.5957 20.1817 81.5164 19.8667 81.5164 19.498C81.5164 19.0407 81.6377 18.6417 81.8804 18.301C82.123 17.9603 82.4637 17.6967 82.9024 17.51C83.3457 17.3233 83.8637 17.23 84.4564 17.23C85.035 17.23 85.5507 17.321 86.0034 17.503C86.456 17.685 86.8224 17.944 87.1024 18.28C87.3824 18.6113 87.5504 19.001 87.6064 19.449L86.1084 19.722C86.057 19.358 85.8867 19.071 85.5974 18.861C85.308 18.651 84.9324 18.5367 84.4704 18.518C84.027 18.4993 83.6677 18.574 83.3924 18.742C83.117 18.9053 82.9794 19.1317 82.9794 19.421C82.9794 19.589 83.0307 19.7313 83.1334 19.848C83.2407 19.9647 83.446 20.0767 83.7494 20.184C84.0527 20.2913 84.5007 20.4197 85.0934 20.569C85.728 20.7323 86.232 20.9143 86.6054 21.115C86.9787 21.311 87.2447 21.5467 87.4034 21.822C87.5667 22.0927 87.6484 22.4217 87.6484 22.809C87.6484 23.5557 87.3754 24.1413 86.8294 24.566C86.288 24.9907 85.539 25.203 84.5824 25.203ZM92.5502 25.21C91.7989 25.21 91.1386 25.0467 90.5692 24.72C90.0046 24.3887 89.5636 23.929 89.2462 23.341C88.9336 22.7483 88.7772 22.0623 88.7772 21.283C88.7772 20.457 88.9312 19.7407 89.2392 19.134C89.5519 18.5273 89.9859 18.0583 90.5412 17.727C91.0966 17.3957 91.7429 17.23 92.4802 17.23C93.2502 17.23 93.9059 17.4097 94.4472 17.769C94.9886 18.1237 95.3922 18.63 95.6582 19.288C95.9289 19.946 96.0362 20.7277 95.9802 21.633H94.5172V21.101C94.5079 20.2237 94.3399 19.575 94.0132 19.155C93.6912 18.735 93.1989 18.525 92.5362 18.525C91.8036 18.525 91.2529 18.756 90.8842 19.218C90.5156 19.68 90.3312 20.3473 90.3312 21.22C90.3312 22.0507 90.5156 22.6947 90.8842 23.152C91.2529 23.6047 91.7849 23.831 92.4802 23.831C92.9376 23.831 93.3319 23.7283 93.6632 23.523C93.9992 23.313 94.2606 23.0143 94.4472 22.627L95.8822 23.082C95.5882 23.7587 95.1426 24.2837 94.5452 24.657C93.9479 25.0257 93.2829 25.21 92.5502 25.21ZM89.8552 21.633V20.492H95.2522V21.633H89.8552Z" fill="#163467"/>
<path d="M96.8507 25L100.127 14.92H102.234L105.51 25H103.991L100.974 15.802H101.352L98.3697 25H96.8507ZM98.5517 22.725V21.353H103.816V22.725H98.5517ZM106.906 25V14.92H108.369V25H106.906Z" fill="#5FD1DA"/>
<defs>
<linearGradient id="paint0_linear_58_1375" x1="21.5" y1="4.5" x2="14.3629" y2="11.3347" gradientUnits="userSpaceOnUse">
<stop stop-color="#6EBDDE"/>
<stop offset="1" stop-color="#163467"/>
</linearGradient>
<linearGradient id="paint1_linear_58_1375" x1="23" y1="13" x2="17.5" y2="40.5" gradientUnits="userSpaceOnUse">
<stop stop-color="#6EBDDE"/>
<stop offset="1" stop-color="#163467"/>
</linearGradient>
<linearGradient id="paint2_linear_58_1375" x1="23" y1="13" x2="17.5" y2="40.5" gradientUnits="userSpaceOnUse">
<stop stop-color="#6EBDDE"/>
<stop offset="1" stop-color="#163467"/>
</linearGradient>
</defs>
</svg>
