<svg width="109" height="38" viewBox="0 0 109 38" fill="none" xmlns="http://www.w3.org/2000/svg">
<path d="M35.877 25V14.92H39.951C40.049 14.92 40.1703 14.9247 40.315 14.934C40.4596 14.9387 40.5973 14.9527 40.728 14.976C41.288 15.0647 41.7546 15.256 42.128 15.55C42.506 15.844 42.7883 16.215 42.975 16.663C43.1616 17.111 43.255 17.6057 43.255 18.147C43.255 18.693 43.1616 19.19 42.975 19.638C42.7883 20.086 42.506 20.457 42.128 20.751C41.7546 21.045 41.288 21.2364 40.728 21.325C40.5973 21.3437 40.4573 21.3577 40.308 21.367C40.1633 21.3764 40.0443 21.381 39.951 21.381H37.34V25H35.877ZM37.34 19.995H39.895C39.9883 19.995 40.091 19.9904 40.203 19.981C40.3196 19.9717 40.4293 19.9554 40.532 19.932C40.8306 19.862 41.071 19.7337 41.253 19.547C41.435 19.3557 41.5656 19.1364 41.645 18.889C41.7243 18.6417 41.764 18.3944 41.764 18.147C41.764 17.8997 41.7243 17.6547 41.645 17.412C41.5656 17.1647 41.435 16.9477 41.253 16.761C41.071 16.5697 40.8306 16.439 40.532 16.369C40.4293 16.341 40.3196 16.3224 40.203 16.313C40.091 16.3037 39.9883 16.299 39.895 16.299H37.34V19.995Z" fill="#011627"/>
<path d="M46.5569 25.21C45.9969 25.21 45.5279 25.1074 45.1499 24.902C44.7719 24.692 44.4849 24.4167 44.2889 24.076C44.0975 23.7307 44.0019 23.3527 44.0019 22.942C44.0019 22.5594 44.0695 22.2234 44.2049 21.934C44.3402 21.6447 44.5409 21.3997 44.8069 21.199C45.0729 20.9937 45.3995 20.828 45.7869 20.702C46.1229 20.604 46.5032 20.5177 46.9279 20.443C47.3525 20.3684 47.7982 20.2984 48.2649 20.233C48.7362 20.1677 49.2029 20.1024 49.6649 20.037L49.1329 20.331C49.1422 19.7384 49.0162 19.2997 48.7549 19.015C48.4982 18.7257 48.0549 18.581 47.4249 18.581C47.0282 18.581 46.6642 18.6744 46.3329 18.861C46.0015 19.043 45.7705 19.3464 45.6399 19.771L44.2749 19.351C44.4615 18.7024 44.8162 18.1867 45.3389 17.804C45.8662 17.4214 46.5662 17.23 47.4389 17.23C48.1155 17.23 48.7035 17.3467 49.2029 17.58C49.7069 17.8087 50.0755 18.1727 50.3089 18.672C50.4302 18.9194 50.5049 19.1807 50.5329 19.456C50.5609 19.7314 50.5749 20.0277 50.5749 20.345V25H49.2799V23.271L49.5319 23.495C49.2192 24.0737 48.8202 24.5054 48.3349 24.79C47.8542 25.07 47.2615 25.21 46.5569 25.21ZM46.8159 24.013C47.2312 24.013 47.5882 23.9407 47.8869 23.796C48.1855 23.6467 48.4259 23.4577 48.6079 23.229C48.7899 23.0004 48.9089 22.7624 48.9649 22.515C49.0442 22.291 49.0885 22.039 49.0979 21.759C49.1119 21.479 49.1189 21.255 49.1189 21.087L49.5949 21.262C49.1329 21.332 48.7129 21.395 48.3349 21.451C47.9569 21.507 47.6139 21.563 47.3059 21.619C47.0025 21.6704 46.7319 21.7334 46.4939 21.808C46.2932 21.878 46.1135 21.962 45.9549 22.06C45.8009 22.158 45.6772 22.277 45.5839 22.417C45.4952 22.557 45.4509 22.7274 45.4509 22.928C45.4509 23.124 45.4999 23.306 45.5979 23.474C45.6959 23.6374 45.8452 23.768 46.0459 23.866C46.2465 23.964 46.5032 24.013 46.8159 24.013Z" fill="#011627"/>
<path d="M56.7186 25C56.2426 25.0934 55.7759 25.133 55.3186 25.119C54.8612 25.105 54.4529 25.0164 54.0936 24.853C53.7342 24.6897 53.4636 24.433 53.2816 24.083C53.1182 23.7704 53.0296 23.453 53.0156 23.131C53.0062 22.8044 53.0016 22.4357 53.0016 22.025V15.34H54.4716V21.955C54.4716 22.2584 54.4739 22.522 54.4786 22.746C54.4879 22.97 54.5369 23.159 54.6256 23.313C54.7936 23.6024 55.0596 23.768 55.4236 23.81C55.7922 23.8474 56.2239 23.831 56.7186 23.761V25ZM51.5526 18.616V17.44H56.7186V18.616H51.5526Z" fill="#011627"/>
<path d="M63.6185 25V21.283C63.6185 20.989 63.5928 20.688 63.5415 20.38C63.4948 20.0674 63.4015 19.778 63.2615 19.512C63.1262 19.246 62.9325 19.0314 62.6805 18.868C62.4332 18.7047 62.1088 18.623 61.7075 18.623C61.4462 18.623 61.1988 18.6674 60.9655 18.756C60.7322 18.84 60.5268 18.9777 60.3495 19.169C60.1768 19.3604 60.0392 19.6124 59.9365 19.925C59.8385 20.2377 59.7895 20.618 59.7895 21.066L58.8795 20.723C58.8795 20.037 59.0078 19.4327 59.2645 18.91C59.5212 18.3827 59.8898 17.972 60.3705 17.678C60.8512 17.384 61.4322 17.237 62.1135 17.237C62.6362 17.237 63.0748 17.321 63.4295 17.489C63.7842 17.657 64.0712 17.8787 64.2905 18.154C64.5145 18.4247 64.6848 18.721 64.8015 19.043C64.9182 19.365 64.9975 19.68 65.0395 19.988C65.0815 20.296 65.1025 20.5667 65.1025 20.8V25H63.6185ZM58.3055 25V14.92H59.6145V20.359H59.7895V25H58.3055Z" fill="#011627"/>
<path d="M68.5358 25L66.2258 17.433L67.6748 17.44L69.2568 22.627L70.8528 17.44H72.1128L73.7088 22.627L75.2908 17.44H76.7328L74.4228 25H73.2468L71.4828 19.526L69.7118 25H68.5358Z" fill="#011627"/>
<path d="M78.1263 16.201V14.78H79.5893V16.201H78.1263ZM78.1263 25V17.44H79.5893V25H78.1263Z" fill="#011627"/>
<path d="M84.5824 25.203C83.6631 25.203 82.9141 25 82.3354 24.594C81.7567 24.188 81.4021 23.6164 81.2714 22.879L82.7694 22.648C82.8627 23.04 83.0774 23.3504 83.4134 23.579C83.7541 23.803 84.1764 23.915 84.6804 23.915C85.1377 23.915 85.4947 23.8217 85.7514 23.635C86.0127 23.4484 86.1434 23.1917 86.1434 22.865C86.1434 22.6737 86.0967 22.5197 86.0034 22.403C85.9147 22.2817 85.7257 22.1674 85.4364 22.06C85.1471 21.9527 84.7061 21.8197 84.1134 21.661C83.4647 21.493 82.9491 21.3134 82.5664 21.122C82.1884 20.926 81.9177 20.6997 81.7544 20.443C81.5957 20.1817 81.5164 19.8667 81.5164 19.498C81.5164 19.0407 81.6377 18.6417 81.8804 18.301C82.1231 17.9604 82.4637 17.6967 82.9024 17.51C83.3457 17.3234 83.8637 17.23 84.4564 17.23C85.0351 17.23 85.5507 17.321 86.0034 17.503C86.4561 17.685 86.8224 17.944 87.1024 18.28C87.3824 18.6114 87.5504 19.001 87.6064 19.449L86.1084 19.722C86.0571 19.358 85.8867 19.071 85.5974 18.861C85.3081 18.651 84.9324 18.5367 84.4704 18.518C84.0271 18.4994 83.6677 18.574 83.3924 18.742C83.1171 18.9054 82.9794 19.1317 82.9794 19.421C82.9794 19.589 83.0307 19.7314 83.1334 19.848C83.2407 19.9647 83.4461 20.0767 83.7494 20.184C84.0527 20.2914 84.5007 20.4197 85.0934 20.569C85.7281 20.7324 86.2321 20.9144 86.6054 21.115C86.9787 21.311 87.2447 21.5467 87.4034 21.822C87.5667 22.0927 87.6484 22.4217 87.6484 22.809C87.6484 23.5557 87.3754 24.1414 86.8294 24.566C86.2881 24.9907 85.5391 25.203 84.5824 25.203Z" fill="#011627"/>
<path d="M92.5503 25.21C91.7989 25.21 91.1386 25.0467 90.5693 24.72C90.0046 24.3887 89.5636 23.929 89.2463 23.341C88.9336 22.7484 88.7773 22.0624 88.7773 21.283C88.7773 20.457 88.9313 19.7407 89.2393 19.134C89.5519 18.5274 89.9859 18.0584 90.5413 17.727C91.0966 17.3957 91.7429 17.23 92.4803 17.23C93.2503 17.23 93.9059 17.4097 94.4473 17.769C94.9886 18.1237 95.3923 18.63 95.6583 19.288C95.9289 19.946 96.0363 20.7277 95.9803 21.633H94.5173V21.101C94.5079 20.2237 94.3399 19.575 94.0133 19.155C93.6913 18.735 93.1989 18.525 92.5363 18.525C91.8036 18.525 91.2529 18.756 90.8843 19.218C90.5156 19.68 90.3313 20.3474 90.3313 21.22C90.3313 22.0507 90.5156 22.6947 90.8843 23.152C91.2529 23.6047 91.7849 23.831 92.4803 23.831C92.9376 23.831 93.3319 23.7284 93.6633 23.523C93.9993 23.313 94.2606 23.0144 94.4473 22.627L95.8823 23.082C95.5883 23.7587 95.1426 24.2837 94.5453 24.657C93.9479 25.0257 93.2829 25.21 92.5503 25.21ZM89.8553 21.633V20.492H95.2523V21.633H89.8553Z" fill="#011627"/>
<path d="M96.8508 25L100.127 14.92H102.234L105.51 25H103.991L100.974 15.802H101.352L98.3698 25H96.8508ZM98.5518 22.725V21.353H103.816V22.725H98.5518Z" fill="#55C7F1"/>
<path d="M106.906 25V14.92H108.369V25H106.906Z" fill="#55C7F1"/>
<path d="M8.0864 20.5C-0.5725 23.5561 -0.0929841 31.0103 0.0598009 36.471C0.0799795 37.1922 0.827149 37.6752 1.48792 37.3856L13 32.3386C15 31.5 14.4864 29.3 12.0864 28.5C9.0864 27.5 7.74476 25.2889 9.0864 23.5C10.5864 21.5 15.1771 20.7469 18.0864 19.5C21.5864 18 23.0864 17 23.5864 15C23.985 13.4054 23.0864 11.4 21.0864 11L21.5864 12C23.0864 16 16.5864 17.5 8.0864 20.5Z" fill="url(#paint0_linear_64_554)"/>
<path d="M24.5249 27.0865C35.0857 16.969 27.6841 12.1511 22.5864 11C26.5864 14 26.428 16.2111 25.0864 18C23.5864 20 20.0864 21 17.0864 22C14.6685 22.806 15.4136 24.7113 16.5 25L23.5256 27.3152C23.8716 27.4292 24.2618 27.3385 24.5249 27.0865Z" fill="url(#paint1_linear_64_554)"/>
<path d="M19.0864 0C19.0864 5 21 7 26.0864 7C21 7 19.0864 9 19.0864 14C19.0864 9 17 7 12.0864 7C17 7 19.0864 5 19.0864 0Z" fill="url(#paint2_linear_64_554)"/>
<defs>
<linearGradient id="paint0_linear_64_554" x1="11.5" y1="37" x2="22.5" y2="11" gradientUnits="userSpaceOnUse">
<stop stop-color="#3C71FA"/>
<stop offset="1" stop-color="#55C7F1"/>
</linearGradient>
<linearGradient id="paint1_linear_64_554" x1="11.5" y1="37" x2="22.5" y2="11" gradientUnits="userSpaceOnUse">
<stop stop-color="#3C71FA"/>
<stop offset="1" stop-color="#55C7F1"/>
</linearGradient>
<linearGradient id="paint2_linear_64_554" x1="17" y1="9.5" x2="20.5" y2="5.5" gradientUnits="userSpaceOnUse">
<stop stop-color="#3C71FA"/>
<stop offset="1" stop-color="#55C7F1"/>
</linearGradient>
</defs>
</svg>
