<svg width="72" height="72" viewBox="0 0 72 72" fill="none" xmlns="http://www.w3.org/2000/svg">
<path d="M69.9465 0.399658C70.6368 0.399737 71.2003 0.963251 71.2004 1.65356V20.4338C71.2004 21.1242 70.6368 21.6877 69.9465 21.6877H52.2473C51.6953 23.6542 49.8974 25.1028 47.7512 25.1028C45.6066 25.1028 43.7999 23.6557 43.2541 21.6877H11.8976C6.93689 21.6877 2.90747 25.7172 2.90741 30.678C2.90741 33.0825 3.83891 35.3452 5.53827 37.0364H5.53925C7.23951 38.7366 9.50205 39.6682 11.8976 39.6682H19.3527C19.9048 37.7019 21.7026 36.2542 23.8488 36.2542C25.9933 36.2542 27.8 37.7004 28.3459 39.6682H59.7023C66.044 39.6682 71.2004 44.8246 71.2004 51.1663C71.2003 54.2422 70.0057 57.1352 67.8391 59.302C65.6721 61.4689 62.7785 62.6633 59.7023 62.6633H52.2473C51.6953 64.6298 49.8974 66.0784 47.7512 66.0784C45.6066 66.0783 43.7999 64.6313 43.2541 62.6633H19.8947C19.2752 67.4726 15.1665 71.2002 10.1906 71.2004C4.78799 71.2004 0.399597 66.812 0.399597 61.4094C0.399804 56.007 4.78812 51.6194 10.1906 51.6194C15.1666 51.6196 19.2753 55.3471 19.8947 60.1565H43.2551C43.807 58.19 45.6048 56.7415 47.7512 56.7415C49.8958 56.7415 51.7024 58.1884 52.2482 60.1565H59.7023C62.1068 60.1565 64.3695 59.225 66.0607 57.5256L66.0617 57.5237C67.7609 55.8326 68.6925 53.5706 68.6926 51.1663C68.6926 46.2055 64.6631 42.176 59.7023 42.176H28.3449C27.7928 44.1422 25.9949 45.5901 23.8488 45.5901C21.7044 45.5901 19.8978 44.1438 19.3517 42.176H11.8976C8.82966 42.176 5.93688 40.9808 3.7619 38.8147L3.76093 38.8137C1.5949 36.6389 0.399597 33.7547 0.399597 30.678C0.399662 24.3364 5.55604 19.1809 11.8976 19.1809H43.2551C43.807 17.2144 45.6048 15.7659 47.7512 15.7659C49.8958 15.7659 51.7024 17.2128 52.2482 19.1809H68.6926V13.1516H56.2883C55.8357 13.1516 55.4003 12.9165 55.1808 12.4905C54.9701 12.0812 54.9953 11.5957 55.2433 11.2112L55.2463 11.2063L58.1965 6.77563L55.2463 2.35376L55.2433 2.34888C54.9953 1.96438 54.9702 1.47879 55.1808 1.06958C55.3969 0.650131 55.8279 0.399658 56.2883 0.399658H69.9465ZM10.1906 54.1272C6.17751 54.1272 2.90762 57.3964 2.90741 61.4094C2.90741 65.4227 6.17738 68.6926 10.1906 68.6926C14.2037 68.6924 17.4728 65.4225 17.4728 61.4094C17.4726 57.3965 14.2035 54.1274 10.1906 54.1272ZM47.7512 59.2493C46.5637 59.2493 45.5902 60.222 45.59 61.4094C45.59 62.597 46.5636 63.5705 47.7512 63.5706C48.9388 63.5706 49.9123 62.597 49.9123 61.4094C49.9121 60.222 48.9387 59.2493 47.7512 59.2493ZM23.8488 38.761C22.6612 38.761 21.6877 39.7345 21.6877 40.9221C21.6877 42.1097 22.6612 43.0833 23.8488 43.0833C25.0364 43.0832 26.0099 42.1097 26.0099 40.9221C26.0099 39.7345 25.0364 38.761 23.8488 38.761ZM47.7512 18.2737C46.5637 18.2737 45.5902 19.2464 45.59 20.4338C45.59 21.6214 46.5636 22.5949 47.7512 22.595C48.9388 22.595 49.9123 21.6215 49.9123 20.4338C49.9121 19.2464 48.9387 18.2737 47.7512 18.2737ZM60.7433 6.07544L60.7473 6.08032C61.0204 6.50262 61.0203 7.03982 60.7473 7.46216L60.7443 7.46704L58.631 10.6438H68.6926V2.90747H58.632L60.7433 6.07544Z" fill="#011627" stroke="#011627" stroke-width="0.8"/>
</svg>
