<svg width="72" height="72" viewBox="0 0 72 72" fill="none" xmlns="http://www.w3.org/2000/svg">
<path d="M69.9465 0.399658C70.6368 0.399735 71.2004 0.963251 71.2004 1.65356V20.4338C71.2004 21.1242 70.6369 21.6877 69.9465 21.6877H52.2473C51.6953 23.6542 49.8975 25.1028 47.7512 25.1028C45.6067 25.1028 43.8 23.6557 43.2542 21.6877H11.8977C6.93695 21.6877 2.90754 25.7172 2.90747 30.678C2.90747 33.0825 3.83897 35.3452 5.53833 37.0364H5.53931C7.23957 38.7366 9.50211 39.6682 11.8977 39.6682H19.3528C19.9048 37.7019 21.7027 36.2542 23.8489 36.2542C25.9934 36.2542 27.8 37.7004 28.3459 39.6682H59.7024C66.044 39.6682 71.2004 44.8246 71.2004 51.1663C71.2003 54.2422 70.0058 57.1352 67.8391 59.302C65.6722 61.4689 62.7786 62.6633 59.7024 62.6633H52.2473C51.6953 64.6298 49.8975 66.0784 47.7512 66.0784C45.6067 66.0783 43.8 64.6313 43.2542 62.6633H19.8948C19.2753 67.4726 15.1666 71.2002 10.1907 71.2004C4.78805 71.2004 0.399658 66.812 0.399658 61.4094C0.399865 56.007 4.78818 51.6194 10.1907 51.6194C15.1667 51.6196 19.2754 55.3471 19.8948 60.1565H43.2551C43.807 58.19 45.6049 56.7415 47.7512 56.7415C49.8959 56.7415 51.7025 58.1884 52.2483 60.1565H59.7024C62.1069 60.1565 64.3696 59.225 66.0608 57.5256L66.0618 57.5237C67.761 55.8326 68.6925 53.5706 68.6926 51.1663C68.6926 46.2055 64.6632 42.176 59.7024 42.176H28.345C27.7928 44.1422 25.995 45.5901 23.8489 45.5901C21.7045 45.5901 19.8978 44.1438 19.3518 42.176H11.8977C8.82972 42.176 5.93694 40.9808 3.76196 38.8147L3.76099 38.8137C1.59497 36.6389 0.399658 33.7547 0.399658 30.678C0.399723 24.3364 5.5561 19.1809 11.8977 19.1809H43.2551C43.807 17.2144 45.6049 15.7659 47.7512 15.7659C49.8959 15.7659 51.7025 17.2128 52.2483 19.1809H68.6926V13.1516H56.2883C55.8357 13.1516 55.4004 12.9165 55.1809 12.4905C54.9701 12.0812 54.9953 11.5957 55.2434 11.2112L55.2463 11.2063L58.1965 6.77563L55.2463 2.35376L55.2434 2.34888C54.9954 1.96439 54.9702 1.47879 55.1809 1.06958C55.397 0.65013 55.8279 0.399658 56.2883 0.399658H69.9465ZM10.1907 54.1272C6.17757 54.1272 2.90768 57.3964 2.90747 61.4094C2.90747 65.4227 6.17744 68.6926 10.1907 68.6926C14.2037 68.6924 17.4729 65.4225 17.4729 61.4094C17.4727 57.3965 14.2036 54.1274 10.1907 54.1272ZM47.7512 59.2493C46.5637 59.2493 45.5903 60.222 45.5901 61.4094C45.5901 62.597 46.5636 63.5705 47.7512 63.5706C48.9388 63.5706 49.9124 62.597 49.9124 61.4094C49.9121 60.222 48.9387 59.2493 47.7512 59.2493ZM23.8489 38.761C22.6613 38.761 21.6877 39.7345 21.6877 40.9221C21.6878 42.1097 22.6613 43.0833 23.8489 43.0833C25.0364 43.0832 26.0099 42.1097 26.01 40.9221C26.01 39.7345 25.0365 38.761 23.8489 38.761ZM47.7512 18.2737C46.5637 18.2737 45.5903 19.2464 45.5901 20.4338C45.5901 21.6214 46.5636 22.5949 47.7512 22.595C48.9388 22.595 49.9124 21.6215 49.9124 20.4338C49.9122 19.2464 48.9387 18.2737 47.7512 18.2737ZM60.7434 6.07544L60.7473 6.08032C61.0204 6.50262 61.0204 7.03982 60.7473 7.46216L60.7444 7.46704L58.6311 10.6438H68.6926V2.90747H58.6321L60.7434 6.07544Z" fill="#F0F0F0" stroke="#F0F0F0" stroke-width="0.8"/>
</svg>
